<svg width="115" height="46" viewBox="0 0 115 46" fill="none" xmlns="http://www.w3.org/2000/svg">
<path d="M4.20918 34C5.01701 34 6.33503 33.5323 6.33503 32.5119V15.4201L15.4337 15.25C16.2415 15.25 17.517 14.8248 17.517 13.8044C17.517 12.8265 16.3265 12.3588 15.4762 12.3588L6.33503 12.4864V7.0017L15.6037 6.87415C16.4116 6.87415 17.6871 6.4915 17.6871 5.42857C17.6871 4.45068 16.6241 3.983 15.7313 3.983L5.78231 4.11055C5.39966 3.81293 4.88945 3.68538 4.33673 3.68538C3.78401 3.68538 3.18877 3.77041 2.72109 4.15307C1.95578 4.19558 0.807823 4.62075 0.807823 5.55613C0.807823 6.27892 1.53061 6.78912 2.16837 6.95919V12.8691C1.7432 13.0816 1.36054 13.4643 1.36054 13.9745C1.36054 14.4847 1.78571 14.9099 2.16837 15.1225L2.08333 32.5119C2.08333 33.4473 3.35884 34 4.20918 34ZM31.9964 34C32.9743 34 34.2498 33.4898 34.2498 30.8963C34.2498 30.0884 34.1222 28.0901 34.1222 26.0068L34.2498 13.3367C34.2498 12.2738 32.9317 11.8912 32.0389 11.8912C31.061 11.8912 30.0406 12.3588 30.0406 13.5493C28.8501 12.5714 26.9794 11.9337 25.3212 11.9337C19.4964 11.9337 17.5406 19.8418 17.5406 24.4337C17.5406 27.4949 18.3909 34 22.8977 34C25.5338 34 28.2124 31.7041 29.9556 29.3231V32.5544C29.9556 33.6173 31.1885 34 31.9964 34ZM23.663 30.9388C21.7073 30.9388 21.4947 25.4541 21.4947 24.0935C21.4947 21.7551 22.1749 14.7398 26.6392 14.7398C29.6579 14.7398 29.828 17.8435 29.828 18.8214C29.828 23.2857 26.0015 30.9388 23.663 30.9388ZM46.0084 33.9575C49.5798 33.9575 54.0866 31.7891 54.0866 27.5374C54.0866 20.8197 42.6495 22.7755 42.6495 17.3333C42.6495 15.6327 43.7975 14.7823 45.5407 14.7823C47.4114 14.7823 50.005 15.8027 50.005 17.6735C50.005 18.9065 51.1954 19.4592 52.0458 19.4592C52.8111 19.4592 54.2142 18.9915 54.2142 17.2058C54.2142 13.8044 49.0271 11.8912 45.5407 11.8912C42.1393 11.8912 38.3978 13.7194 38.3978 17.7585C38.3978 24.8588 50.2176 22.733 50.2176 27.7925C50.2176 29.7483 48.4744 31.1514 46.4761 31.1514C43.4574 31.1514 41.9693 28.0476 41.9693 25.9643C41.9693 24.1786 40.7788 23.7109 39.9284 23.7109C39.0781 23.7109 37.8026 24.1361 37.8026 26.3044C37.8026 29.7908 41.1189 33.9575 46.0084 33.9575ZM71.67 34C72.903 34 73.6683 33.4473 73.8384 32.2143C74.051 31.1088 74.0935 29.8333 74.0935 28.4728L74.051 24.4762C74.051 20.5646 73.8809 11.8912 68.9915 11.8912C66.1853 11.8912 63.5493 14.7398 62.2738 16.9932L62.2313 4.87585C62.2313 3.85545 61.0408 3.43028 60.1904 3.43028C59.3401 3.43028 58.0646 3.81293 58.0646 4.87585L58.1921 32.5544C58.1921 33.5323 59.5102 34 60.403 34C61.8911 34 62.3163 33.3197 62.4438 31.9167C62.6564 27.9201 64.8673 17.7585 68.5238 15.1225C69.7143 17.801 69.8418 21.8827 69.8418 24.3486C69.8418 27.3248 69.6292 29.9184 69.6292 31.0238C69.6292 33.5748 70.7347 34 71.67 34ZM90.5815 43.2262C91.4318 43.2262 92.7073 42.801 92.7073 41.7806L92.7498 32.5969C94.1529 33.7449 95.8536 34.2551 97.7243 34.2551C103.889 34.2551 105.122 28.6854 105.122 23.9235C105.122 19.2466 103.889 11.8486 98.7022 11.8486C96.2362 11.8486 94.0679 13.5493 92.9624 15.2075V14.102C92.9624 12.8691 92.7923 11.9337 91.2192 11.9337C89.9012 11.9337 88.5832 12.6139 88.5832 13.7619L88.5406 41.7806C88.5406 42.7585 89.7311 43.2262 90.5815 43.2262ZM97.9369 31.4065C95.4284 31.4065 93.4301 26.602 93.4301 24.6463C93.4301 22.5629 95.726 15.0799 97.8094 15.0799C99.9352 15.0799 100.615 23.0306 100.615 25.4541C100.615 26.3469 100.53 31.4065 97.9369 31.4065ZM111.15 33.9575C112 33.9575 113.276 33.5323 113.276 32.5119L113.403 13.3793C113.403 12.4439 112.043 11.9337 111.235 11.9337C110.47 11.9337 109.152 12.4014 109.152 13.3793L109.109 32.5119C109.109 33.4898 110.3 33.9575 111.15 33.9575ZM111.065 10.318C112.128 10.318 113.829 9.72279 113.829 8.44728C113.829 7.17177 112.17 6.57653 111.15 6.57653C110.13 6.57653 108.429 7.21429 108.429 8.4898C108.429 9.72279 110.002 10.318 111.065 10.318Z" fill="#35384D"/>
<path d="M81.604 34.4034C86.7933 34.4034 91 30.1967 91 25.0074C91 19.8182 86.7933 15.6115 81.604 15.6115C76.4147 15.6115 72.208 19.8182 72.208 25.0074C72.208 30.1967 76.4147 34.4034 81.604 34.4034Z" fill="#DD0C55"/>
<path d="M81.604 31.3318C85.0968 31.3318 87.9282 28.5004 87.9282 25.0076C87.9282 21.5148 85.0968 18.6833 81.604 18.6833C78.1112 18.6833 75.2798 21.5148 75.2798 25.0076C75.2798 28.5004 78.1112 31.3318 81.604 31.3318Z" fill="white"/>
<path d="M79.3454 23.9233C79.9441 23.9233 80.4295 23.4379 80.4295 22.8392C80.4295 22.2404 79.9441 21.755 79.3454 21.755C78.7466 21.755 78.2612 22.2404 78.2612 22.8392C78.2612 23.4379 78.7466 23.9233 79.3454 23.9233Z" fill="#35384D"/>
<path d="M83.8627 23.9233C84.4615 23.9233 84.9469 23.4379 84.9469 22.8392C84.9469 22.2404 84.4615 21.755 83.8627 21.755C83.264 21.755 82.7786 22.2404 82.7786 22.8392C82.7786 23.4379 83.264 23.9233 83.8627 23.9233Z" fill="#35384D"/>
<path d="M83.8627 28.3502C84.4615 28.3502 84.9469 27.8648 84.9469 27.266C84.9469 26.6673 84.4615 26.1819 83.8627 26.1819C83.264 26.1819 82.7786 26.6673 82.7786 27.266C82.7786 27.8648 83.264 28.3502 83.8627 28.3502Z" fill="#35384D"/>
<path d="M79.3454 28.3502C79.9441 28.3502 80.4295 27.8648 80.4295 27.266C80.4295 26.6673 79.9441 26.1819 79.3454 26.1819C78.7466 26.1819 78.2612 26.6673 78.2612 27.266C78.2612 27.8648 78.7466 28.3502 79.3454 28.3502Z" fill="#35384D"/>
</svg>
